<?xml version="1.0" standalone="no"?>
<!DOCTYPE svg PUBLIC "-//W3C//DTD SVG 20010904//EN"
 "http://www.w3.org/TR/2001/REC-SVG-20010904/DTD/svg10.dtd">
<svg version="1.0" xmlns="http://www.w3.org/2000/svg"
 width="1779.000000pt" height="832.000000pt" viewBox="0 0 1779.000000 832.000000"
 preserveAspectRatio="xMidYMid meet">

<g transform="translate(0.000000,832.000000) scale(0.100000,-0.100000)"
fill="#000000" stroke="none">
<path d="M7585 7430 c-627 -65 -1175 -315 -1588 -725 -346 -344 -559 -749
-639 -1215 -26 -152 -31 -468 -9 -620 54 -382 218 -757 467 -1067 484 -605
1278 -958 2090 -931 l150 5 -43 -161 c-204 -764 -431 -1638 -440 -1693 -3 -21
-1 -33 6 -33 6 0 11 3 11 8 0 4 9 12 20 17 10 6 120 75 242 154 123 79 229
144 236 144 6 0 12 4 12 9 0 4 4 8 10 8 23 0 50 41 50 77 0 20 203 799 450
1730 248 931 450 1702 450 1713 0 19 -7 20 -245 20 -241 0 -245 0 -245 -21 0
-26 -380 -1471 -390 -1482 -4 -4 -54 2 -111 14 -694 143 -1223 774 -1308 1561
-66 598 177 1235 610 1605 217 185 439 296 709 354 151 33 419 33 570 0 416
-88 765 -329 1010 -695 60 -90 150 -259 150 -281 0 -13 28 -15 190 -15 105 0
190 4 190 9 0 23 -157 320 -218 412 -197 299 -452 541 -773 735 -301 181 -638
298 -1009 349 -137 19 -479 27 -605 15z"/>
<path d="M9416 4833 c-4 -21 -182 -724 -397 -1563 -214 -839 -389 -1542 -389
-1562 0 -39 20 -52 37 -25 4 8 119 85 255 171 135 87 255 166 265 175 10 9 25
20 33 23 19 7 16 -6 175 623 75 297 161 635 192 750 30 116 57 221 59 235 3
14 34 138 69 275 36 138 71 282 79 320 9 39 27 113 41 165 67 250 107 421 101
435 -5 13 -41 15 -260 15 l-254 0 -6 -37z"/>
</g>
</svg>
