<?xml version="1.0" standalone="no"?>
<!DOCTYPE svg PUBLIC "-//W3C//DTD SVG 20010904//EN"
 "http://www.w3.org/TR/2001/REC-SVG-20010904/DTD/svg10.dtd">
<svg version="1.0" xmlns="http://www.w3.org/2000/svg"
 width="538.000000pt" height="155.000000pt" viewBox="0 0 538.000000 155.000000"
 preserveAspectRatio="xMidYMid meet">

<g transform="translate(0.000000,155.000000) scale(0.100000,-0.100000)"
fill="#000000" stroke="none">
<path d="M884 1360 c-53 -27 -121 -94 -149 -150 -28 -55 -82 -218 -94 -283
-11 -60 1 -116 30 -139 26 -22 51 -23 88 -3 l28 14 -20 -56 c-20 -53 -66 -111
-112 -141 -18 -12 -17 -12 10 -7 50 10 118 58 152 108 29 43 131 323 121 333
-3 2 -22 1 -44 -4 -35 -7 -39 -11 -45 -47 -13 -72 -43 -139 -70 -154 -61 -34
-74 16 -39 153 54 212 130 360 176 342 13 -5 15 -15 11 -44 -3 -20 -8 -45 -12
-54 -12 -30 15 -21 51 18 23 24 34 45 34 65 0 70 -39 87 -116 49z"/>
<path d="M1105 1049 c-68 -19 -111 -98 -92 -169 12 -47 56 -94 73 -79 11 9 7
17 -16 41 -81 81 8 218 113 175 46 -20 67 -52 67 -103 0 -34 -6 -49 -31 -73
-25 -26 -28 -32 -15 -37 35 -14 76 51 76 120 0 52 -34 100 -87 122 -36 16 -45
16 -88 3z"/>
<path d="M1967 925 c-37 -74 -67 -137 -67 -140 0 -3 7 -5 15 -5 9 0 36 41 67
105 29 58 55 105 58 105 5 0 90 -165 90 -175 0 -3 -29 -5 -64 -5 -48 0 -65 -4
-70 -15 -4 -13 9 -15 89 -15 52 0 95 2 95 5 0 10 -135 275 -140 275 -3 0 -36
-61 -73 -135z"/>
<path d="M1342 958 c3 -105 18 -135 77 -164 69 -33 150 -4 187 68 20 39 19
188 -1 188 -12 0 -15 -15 -15 -75 0 -114 -35 -165 -113 -165 -31 0 -46 7 -73
34 -33 33 -34 36 -34 120 0 72 -3 86 -16 86 -14 0 -15 -13 -12 -92z"/>
<path d="M1680 1040 c0 -5 23 -10 50 -10 l50 0 0 -125 c0 -103 3 -125 15 -125
12 0 15 23 17 123 l3 122 48 3 c26 2 47 7 47 13 0 5 -49 9 -115 9 -70 0 -115
-4 -115 -10z"/>
<path d="M2230 915 c0 -113 2 -135 15 -135 12 0 15 21 16 123 l0 122 66 -130
66 -130 61 123 c33 67 63 122 66 122 3 0 4 -52 3 -115 -1 -107 0 -115 18 -115
18 0 19 8 19 135 l0 135 -30 0 c-28 0 -33 -7 -84 -107 l-54 -108 -53 108 c-49
97 -56 107 -81 107 l-28 0 0 -135z"/>
<path d="M765 493 c-37 -9 -83 -53 -95 -89 -17 -52 -6 -102 32 -141 52 -54
141 -57 192 -6 38 38 17 54 -24 19 -45 -37 -101 -36 -140 3 -50 50 -52 106 -5
153 45 45 108 44 152 -2 29 -31 59 -31 43 0 -23 44 -104 76 -155 63z"/>
<path d="M1357 365 c-37 -74 -67 -137 -67 -140 0 -3 7 -5 15 -5 9 0 36 41 67
105 29 58 55 105 58 105 5 0 90 -165 90 -175 0 -3 -29 -5 -64 -5 -48 0 -65 -4
-70 -15 -4 -13 9 -15 89 -15 52 0 95 2 95 5 0 10 -135 275 -140 275 -3 0 -36
-61 -73 -135z"/>
<path d="M1927 365 c-37 -74 -67 -137 -67 -140 0 -3 7 -5 15 -5 9 0 36 41 67
105 29 58 55 105 58 105 5 0 90 -165 90 -175 0 -3 -29 -5 -64 -5 -48 0 -65 -4
-70 -15 -4 -13 9 -15 89 -15 52 0 95 2 95 5 0 10 -135 275 -140 275 -3 0 -36
-61 -73 -135z"/>
<path d="M2518 365 c-38 -73 -68 -136 -68 -139 0 -3 8 -6 18 -5 12 0 33 34 71
112 l53 112 44 -94 c24 -51 44 -95 44 -97 0 -2 -26 -4 -59 -4 -40 0 -63 -5
-71 -15 -11 -13 -1 -15 84 -15 53 0 96 2 96 4 0 11 -133 276 -139 276 -3 0
-36 -61 -73 -135z"/>
<path d="M3228 365 c-38 -74 -68 -137 -68 -140 0 -3 7 -5 15 -5 9 0 37 45 72
113 l56 112 43 -90 c24 -49 43 -93 43 -97 1 -5 -25 -8 -58 -8 -40 0 -63 -5
-71 -15 -11 -13 -1 -15 84 -15 53 0 96 2 96 4 0 11 -132 276 -138 276 -4 0
-37 -61 -74 -135z"/>
<path d="M4213 479 c-130 -64 -85 -259 60 -259 64 0 134 47 108 73 -8 8 -14 9
-19 1 -47 -69 -165 -50 -192 30 -25 78 58 161 135 136 19 -6 44 -23 55 -37 16
-20 23 -24 32 -15 24 24 -69 92 -127 92 -5 0 -29 -9 -52 -21z"/>
<path d="M980 355 c0 -128 1 -135 20 -135 19 0 20 7 20 135 0 128 -1 135 -20
135 -19 0 -20 -7 -20 -135z"/>
<path d="M1208 428 l-3 -63 -72 -3 c-40 -2 -73 -7 -73 -12 0 -5 33 -10 73 -12
l72 -3 3 -57 c2 -43 7 -58 17 -58 12 0 15 24 15 135 0 111 -3 135 -15 135 -10
0 -15 -16 -17 -62z"/>
<path d="M1620 355 c0 -112 2 -135 15 -135 12 0 15 23 17 123 l3 122 69 3 c53
2 72 -1 87 -14 38 -34 14 -94 -37 -94 -13 0 -24 -4 -24 -10 0 -5 18 -10 39
-10 46 0 71 26 71 75 0 17 -7 41 -16 53 -14 20 -23 22 -120 22 l-104 0 0 -135z"/>
<path d="M2190 355 l0 -135 105 0 c87 0 105 3 105 15 0 12 -17 15 -90 15 l-90
0 0 120 c0 100 -2 120 -15 120 -13 0 -15 -22 -15 -135z"/>
<path d="M2780 355 c0 -113 2 -135 15 -135 12 0 15 21 16 123 l0 122 66 -130
66 -130 66 130 66 130 3 -122 c2 -100 5 -123 17 -123 13 0 15 23 15 135 l0
135 -30 0 c-29 0 -33 -6 -80 -106 -28 -58 -53 -103 -58 -100 -4 2 -29 50 -57
105 -45 92 -52 101 -77 101 l-28 0 0 -135z"/>
<path d="M3490 355 l0 -135 78 0 c88 0 129 18 162 72 24 40 25 79 3 125 -26
56 -64 73 -160 73 l-83 0 0 -135z m147 104 c68 -26 98 -90 69 -148 -21 -40
-63 -61 -126 -61 l-50 0 0 110 0 110 39 0 c22 0 52 -5 68 -11z"/>
<path d="M3800 410 c0 -50 5 -91 14 -108 53 -103 195 -109 248 -11 24 45 27
199 3 199 -12 0 -15 -16 -15 -86 0 -84 -1 -87 -34 -120 -27 -27 -42 -34 -73
-34 -78 0 -113 51 -113 165 0 60 -3 75 -15 75 -12 0 -15 -16 -15 -80z"/>
<path d="M4454 408 c3 -96 21 -139 69 -168 62 -38 152 -17 193 46 13 19 19 53
22 116 4 82 3 90 -13 86 -15 -2 -19 -15 -22 -78 -5 -105 -9 -118 -46 -140 -39
-24 -80 -25 -117 -3 -40 23 -50 52 -50 143 0 72 -2 80 -19 80 -17 0 -19 -7
-17 -82z"/>
<path d="M4260 350 c0 -6 28 -10 65 -10 37 0 65 4 65 10 0 6 -28 10 -65 10
-37 0 -65 -4 -65 -10z"/>
</g>
</svg>
